<?xml version="1.0" encoding="iso-8859-1"?>
<!-- Generator: Adobe Illustrator 19.0.0, SVG Export Plug-In . SVG Version: 6.00 Build 0)  -->
<svg version="1.1" id="Capa_1" xmlns="http://www.w3.org/2000/svg" xmlns:xlink="http://www.w3.org/1999/xlink" x="0px" y="0px"
	 viewBox="0 0 512 512" style="enable-background:new 0 0 512 512;" xml:space="preserve">
<g>
	<g>
		<path d="M496.721,227.727h-53.377c-5.78-24.64-25.208-44.067-49.848-49.848V166.39c0-8.438-6.841-15.279-15.279-15.279
			s-15.279,6.841-15.279,15.279v11.489c-24.64,5.78-44.067,25.207-49.848,49.848h-33.651c-5.186-36.051-28.435-66.341-60.254-81.374
			c9.676-10.808,15.575-25.065,15.575-40.678c0-33.667-27.389-61.055-61.055-61.055c-33.667,0-61.056,27.389-61.056,61.055
			c0,15.614,5.898,29.871,15.575,40.678c-31.819,15.033-55.069,45.322-60.254,81.374H15.279C6.841,227.727,0,234.567,0,243.005
			s6.841,15.278,15.279,15.278h11.426v193.819c0,8.438,6.841,15.279,15.279,15.279h428.033c8.438,0,15.279-6.841,15.279-15.279
			V258.284h11.426c8.438,0,15.279-6.841,15.279-15.278S505.159,227.727,496.721,227.727z M378.218,206.654
			c14.59,0,27.2,8.639,32.981,21.072h-65.961C351.02,215.295,363.628,206.654,378.218,206.654z M173.707,75.176
			c16.817,0,30.498,13.681,30.498,30.498c0,16.817-13.681,30.499-30.498,30.499c-16.818,0-30.499-13.682-30.499-30.499
			C143.208,88.856,156.89,75.176,173.707,75.176z M173.707,166.73c36.826,0,67.642,26.235,74.737,60.997H98.969
			C106.064,192.965,136.88,166.73,173.707,166.73z M57.262,436.824V258.284h397.476v178.541H57.262z"/>
	</g>
</g>
<g>
	<g>
		<path d="M287.575,292.145c-8.438,0-15.279,6.841-15.279,15.279v24.851h-37.013v-24.851c0-8.438-6.841-15.279-15.279-15.279
			s-15.279,6.841-15.279,15.279v80.261c0,8.438,6.841,15.279,15.279,15.279s15.279-6.841,15.279-15.279v-24.852h37.013v24.852
			c0,8.438,6.841,15.279,15.279,15.279s15.279-6.841,15.279-15.279v-80.261C302.854,298.986,296.014,292.145,287.575,292.145z"/>
	</g>
</g>
<g>
</g>
<g>
</g>
<g>
</g>
<g>
</g>
<g>
</g>
<g>
</g>
<g>
</g>
<g>
</g>
<g>
</g>
<g>
</g>
<g>
</g>
<g>
</g>
<g>
</g>
<g>
</g>
<g>
</g>
</svg>
