<svg id="Capa_1" enable-background="new 0 0 512 512" height="512" viewBox="0 0 512 512" width="512" xmlns="http://www.w3.org/2000/svg"><path d="m469.678 169.202h-59.678v-67.45c0-3.979-1.58-7.794-4.394-10.606l-86.752-86.752c-2.812-2.814-6.627-4.394-10.606-4.394h-253.344c-30.274 0-54.904 24.63-54.904 54.904v402.191c0 30.275 24.63 54.905 54.904 54.905h300.191c30.275 0 54.905-24.63 54.905-54.904v-35.367h59.678c23.337 0 42.322-18.985 42.322-42.322v-167.883c0-23.336-18.985-42.322-42.322-42.322zm-54.937 222.527h-250.01c-2.562-33.632-30.747-60.214-65.025-60.214-.746 0-1.49.013-2.233.038v-72.174c.743.025 1.487.038 2.233.038 34.278 0 62.463-26.582 65.025-60.214h250.01c2.562 33.632 30.747 60.214 65.025 60.214.746 0 1.49-.013 2.233-.038v72.174c-.743-.025-1.487-.038-2.233-.038-34.277 0-62.463 26.581-65.025 60.214zm-280.174-192.527c-2.435 17.058-17.14 30.214-34.861 30.214-.748 0-1.492-.023-2.233-.07v-17.822c0-6.795 5.527-12.322 12.322-12.322zm-37.094 162.382c.741-.046 1.486-.07 2.233-.07 17.721 0 32.425 13.156 34.861 30.214h-24.772c-6.795 0-12.322-5.527-12.322-12.322zm384.527-150.06v17.822c-.741.046-1.486.07-2.233.07-17.721 0-32.425-13.156-34.861-30.214h24.772c6.795 0 12.322 5.527 12.322 12.322zm-158.752-160.311 35.539 35.539h-35.539zm56.752 405.883c0 13.732-11.172 24.904-24.904 24.904h-300.192c-13.732 0-24.904-11.172-24.904-24.904v-402.192c0-13.732 11.172-24.904 24.904-24.904h238.344v71.752c0 8.284 6.716 15 15 15h71.752v52.45h-270.205c-23.337 0-42.322 18.985-42.322 42.322v167.882c0 23.337 18.985 42.322 42.322 42.322h270.205zm89.678-65.367h-24.772c2.435-17.058 17.14-30.214 34.861-30.214.748 0 1.492.023 2.233.07v17.822c0 6.794-5.527 12.322-12.322 12.322z"/><path d="m289.736 269.997h20.234c8.284 0 15-6.716 15-15s-6.716-15-15-15h-5.234v-7.307c0-8.284-6.716-15-15-15s-15 6.716-15 15v10.662c-11.948 5.644-20.234 17.812-20.234 31.879 0 19.429 15.806 35.234 35.234 35.234 2.887 0 5.234 2.348 5.234 5.233s-2.348 5.234-5.234 5.234h-20.234c-8.284 0-15 6.716-15 15s6.716 15 15 15h5.234v7.307c0 8.284 6.716 15 15 15s15-6.716 15-15v-10.662c11.948-5.644 20.234-17.812 20.234-31.879 0-19.428-15.806-35.233-35.234-35.233-2.887 0-5.234-2.348-5.234-5.234s2.348-5.234 5.234-5.234z"/></svg>