<svg id="Capa_1" enable-background="new 0 0 512.001 512.001" height="512" viewBox="0 0 512.001 512.001" width="512" xmlns="http://www.w3.org/2000/svg"><path d="m24.991 243.496h460.965c8.284 0 15-6.716 15-15s-6.716-15-15-15h-19.891c-7.685-100.684-92.068-180.257-194.686-180.257h-.905v-18.239c0-8.284-6.716-15-15-15s-15 6.716-15 15v18.239h-.905c-102.619 0-187.002 79.573-194.687 180.257h-19.891c-8.284 0-15 6.716-15 15s6.716 15 15 15zm54.323-55.384c.539.059 1.085.093 1.639.093h34.595c8.284 0 15-6.716 15-15s-6.716-15-15-15h-25.528c26.461-56.071 83.547-94.966 149.549-94.966h31.811c86.067 0 156.978 66.136 164.582 150.257h-360.975c.783-8.672 2.25-17.148 4.327-25.384z"/><path d="m488.046 356.086c-14.957-11.281-33.91-14.942-51.994-10.045l-97.838 26.496c1.879-5.301 2.912-11 2.912-16.937 0-28.03-22.804-50.834-50.834-50.834h-67.081c-13.117-15.842-32.528-25.082-53.409-25.082-20.582 0-39.091 9.012-51.815 23.288-10.096-12.239-25.372-20.054-42.44-20.054h-60.547c-8.284 0-15 6.716-15 15v199.084c0 8.284 6.716 15 15 15h60.547c15.333 0 29.215-6.314 39.199-16.47.267.014.53.04.801.04h58.414c.052.001.102.008.155.008h109.523c22.471 0 44.36-4.431 65.06-13.169l154.134-65.064c5.627-2.375 9.251-7.924 9.166-14.029-.263-18.736-8.993-35.951-23.953-47.232zm-412.498 125.915h-45.548v-169.084h45.547c13.785 0 25 11.215 25 25v6.631c-.098 1.508-.166 3.024-.166 4.557v77.092l.099 32.537c-.893 12.979-11.73 23.267-24.932 23.267zm261.484-27.229c-16.988 7.172-34.952 10.808-53.393 10.808h-65.615c-.052 0-.102-.008-.155-.008h-87.367l-.018-6.037c.038-.84.064-1.684.064-2.533v-111.425c1.791-20.089 18.708-35.893 39.255-35.893 13.484 0 25.895 6.797 33.199 18.182 2.758 4.3 7.516 6.9 12.625 6.9h74.665c11.488 0 20.834 9.346 20.834 20.834 0 11.482-9.336 20.823-20.815 20.834h-34.531c-.007 0-.013.001-.019.001h-31.537c-3.978 0-7.793 1.58-10.606 4.393l-15.964 15.964c-5.858 5.857-5.858 15.355 0 21.213s15.355 5.858 21.213 0l11.571-11.57h59.855c.013 0 .026-.001.038-.001h35.49c1.324 0 2.643-.176 3.921-.521l114.152-30.914c9.074-2.458 18.582-.621 26.09 5.04 4.887 3.686 8.448 8.633 10.376 14.231z"/></svg>